<svg xmlns="http://www.w3.org/2000/svg" viewBox="0 0 399.48 419.78"><defs><style>.cls-1{isolation:isolate}.cls-2,.cls-3{fill:#f08232}.cls-3{opacity:.28;mix-blend-mode:multiply}.cls-4{fill:#fdfdfd}.cls-5{fill:#c7b29a}.cls-6{fill:#eaeaea}.cls-7{fill:#62c5e2}.cls-8,.cls-9{fill:#f3e600}.cls-11,.cls-9{opacity:.24}.cls-10{fill:#8dc043}.cls-11,.cls-12,.cls-14{fill:#fff}.cls-12{opacity:.17}.cls-13{opacity:.06}</style></defs><title>Artboard 1</title><g class="cls-1"><g id="Layer_1" data-name="Layer 1"><polygon points="399.48 91.37 399.48 368.44 2.66 368.44 2.66 118.02 307.68 118.02 307.68 91.37 399.48 91.37" class="cls-2"/><polygon points="399.48 91.37 399.48 368.44 2.66 368.44 2.66 118.02 307.68 118.02 307.68 91.37 399.48 91.37" class="cls-3"/><rect width="157.92" height="157.92" x="218.77" y="126.75" class="cls-4" transform="translate(-24.99 41.96) rotate(-7.74)"/><rect width="121.71" height="121.71" x="236.88" y="144.85" class="cls-5" transform="translate(-24.99 41.96) rotate(-7.74)"/><rect width="200.51" height="200.51" x="30.45" y="30.45" class="cls-6" transform="translate(-39.7 59.08) rotate(-22.2)"/><rect width="152.81" height="152.81" x="54.3" y="54.3" class="cls-7" transform="translate(-39.7 59.08) rotate(-22.2)"/><circle cx="130.7" cy="130.7" r="38.2" class="cls-8" transform="translate(-39.7 59.08) rotate(-22.2)"/><circle cx="130.7" cy="130.7" r="55.54" class="cls-9" transform="translate(-39.7 59.08) rotate(-22.2)"/><path d="M88.83,230.32l35.67-84.87a16,16,0,0,1,20.95-8.55l84.87,35.67Z" class="cls-10"/><circle cx="161.61" cy="67.97" r="5.02" class="cls-11" transform="translate(-13.7 66.11) rotate(-22.2)"/><polygon points="75.77 261.41 185.64 0 0 75.77 75.77 261.41" class="cls-12"/><rect width="396.81" height="250.41" x="2.66" y="169.37" class="cls-2"/><polygon points="233.81 118.02 268.2 169.37 254.77 169.37 233.81 118.02" class="cls-13"/><path d="M205.91,294.45l59.61-52a17.19,17.19,0,0,0-12.1-29.28,17.38,17.38,0,0,0-12.35,5.1l-59.34,52v-40a17.29,17.29,0,0,0-29.55-12,16.36,16.36,0,0,0-5.08,12V358.63a16.23,16.23,0,0,0,5.08,12.1,16.94,16.94,0,0,0,12.23,5,16.77,16.77,0,0,0,12.35-5,16.48,16.48,0,0,0,5-12.1v-40l59.34,52.47a17.85,17.85,0,0,0,12.35,4.83,17,17,0,0,0,12.1-4.83,17.38,17.38,0,0,0,5.1-12.35,16.54,16.54,0,0,0-5.1-12.1Z" class="cls-14"/></g></g></svg>